<?xml version="1.0" standalone="no"?>
<!DOCTYPE svg PUBLIC "-//W3C//DTD SVG 20010904//EN"
 "http://www.w3.org/TR/2001/REC-SVG-20010904/DTD/svg10.dtd">
<svg version="1.0" xmlns="http://www.w3.org/2000/svg"
 width="876.000000pt" height="876.000000pt" viewBox="0 0 876.000000 876.000000"
 preserveAspectRatio="xMidYMid meet">
<metadata>
Created by potrace 1.11, written by Peter Selinger 2001-2013
</metadata>
<g transform="translate(0.000000,876.000000) scale(0.100000,-0.100000)"
fill="#000000" stroke="none">
<path d="M6807 6013 c-2 -1 -23 -5 -48 -7 -56 -6 -194 -42 -234 -60 -17 -8
-41 -20 -55 -26 -60 -26 -139 -82 -196 -136 -52 -51 -134 -156 -134 -173 0 -5
-4 -11 -8 -13 -12 -5 -62 -123 -83 -196 -35 -121 -47 -228 -43 -382 4 -156 8
-197 23 -248 5 -18 10 -36 11 -40 7 -50 17 -77 60 -167 51 -106 85 -152 185
-250 129 -126 202 -175 530 -358 206 -114 320 -205 395 -316 92 -134 115 -294
75 -506 -17 -88 -70 -174 -139 -223 -25 -18 -46 -31 -46 -27 0 3 -12 -1 -27
-9 -48 -24 -151 -34 -231 -22 -60 9 -144 55 -190 103 -61 65 -118 184 -138
287 -2 12 -6 32 -9 46 -3 14 -8 42 -10 64 -3 21 -7 41 -9 45 -3 5 -536 7 -569
2 -7 -1 -3 -120 6 -166 3 -11 8 -42 11 -70 16 -111 89 -324 136 -395 9 -14 29
-43 44 -66 44 -68 214 -224 243 -224 3 0 14 -6 22 -13 39 -32 198 -85 311
-102 25 -4 54 -9 65 -11 28 -6 231 -5 285 1 377 42 645 237 774 565 10 25 20
52 22 60 30 118 44 186 40 196 -3 7 -2 15 2 18 10 11 12 36 12 156 0 122 -5
199 -15 265 -8 49 -41 190 -45 190 -1 0 -3 8 -5 17 -7 38 -88 183 -140 253
-54 72 -174 191 -225 224 -23 15 -102 71 -125 89 -5 4 -17 11 -25 15 -8 4 -33
18 -55 32 -22 14 -47 28 -55 32 -8 4 -17 9 -20 12 -3 3 -45 26 -94 51 -96 48
-190 102 -272 156 -50 32 -164 136 -164 149 0 4 -9 20 -21 36 -11 16 -18 29
-14 29 3 0 -1 12 -9 28 -37 72 -37 269 -1 373 50 142 148 211 301 212 69 1 89
-3 137 -27 34 -16 73 -46 94 -71 38 -45 92 -160 97 -206 2 -14 5 -30 8 -35 3
-5 9 -40 13 -79 4 -38 9 -73 11 -76 2 -4 129 -6 282 -6 l277 2 -1 50 c-1 78
-14 197 -24 215 -5 10 -7 20 -4 23 8 7 -19 99 -58 198 -110 286 -339 462 -653
505 -50 6 -273 13 -278 7z"/>
<path d="M1123 5957 c-4 -7 -7 -190 -3 -212 2 -5 1 -14 0 -20 -2 -12 -3 -86 0
-100 1 -5 1 -30 1 -55 -1 -25 -1 -101 -1 -170 0 -69 0 -132 0 -140 1 -8 0 -35
-1 -60 0 -25 0 -49 1 -55 1 -5 1 -30 1 -55 -2 -110 -2 -346 -1 -355 2 -5 2
-14 1 -19 -3 -13 -3 -288 -1 -301 2 -5 2 -14 1 -19 -3 -13 -3 -288 -1 -301 2
-5 2 -14 1 -19 -5 -25 -3 -297 2 -302 3 -3 1 -18 -3 -34 -4 -16 -6 -30 -4 -32
2 -2 4 -26 4 -54 0 -37 1 -248 1 -319 0 -5 -1 -30 -2 -55 0 -25 0 -49 1 -55 1
-5 1 -30 1 -55 -2 -103 -2 -296 0 -305 1 -5 0 -14 -1 -20 -2 -12 -3 -86 0
-100 1 -5 1 -30 1 -55 -3 -144 -2 -273 2 -277 10 -10 567 -8 570 2 2 6 3 346
3 758 -1 656 1 748 14 752 26 8 292 3 359 -6 35 -5 70 -14 78 -20 7 -6 13 -9
13 -5 0 11 77 -32 102 -56 59 -58 99 -134 113 -220 3 -18 8 -40 10 -48 10 -33
17 -209 20 -490 3 -275 8 -405 21 -490 2 -19 6 -49 8 -65 2 -17 9 -49 15 -72
l11 -41 279 0 279 0 -3 21 c-3 20 -12 91 -20 162 -10 82 -17 271 -21 565 -5
338 -7 398 -17 440 -4 14 -9 45 -12 70 -23 197 -146 404 -288 485 l-47 27 59
37 c135 83 228 202 290 373 30 81 43 139 57 253 19 157 -9 459 -53 565 -3 8
-7 17 -8 20 -85 245 -271 420 -525 493 -53 15 -80 20 -178 33 -68 10 -1123 11
-1129 1z m1028 -520 c49 -9 142 -60 180 -100 42 -43 96 -145 105 -199 3 -18 7
-92 9 -163 5 -200 -25 -313 -113 -416 -49 -57 -177 -109 -279 -112 -29 -1 -53
-5 -53 -8 0 -4 -15 -4 -32 0 -18 4 -48 4 -66 0 -18 -3 -35 -3 -38 2 -2 4 -16
4 -29 -1 -15 -6 -27 -6 -30 0 -3 6 -15 6 -30 0 -14 -5 -27 -5 -30 -1 -3 5 -14
7 -25 4 -11 -3 -21 -1 -21 3 -4 24 -5 990 -1 997 4 8 405 2 453 -6z"/>
<path d="M3196 5963 c-3 -4 -6 -804 -6 -1780 l0 -1773 43 0 c64 -1 385 -1 442
-1 l50 1 -1 780 c0 429 -3 783 -6 786 -4 3 -3 18 1 32 5 15 7 36 5 46 -3 24
-6 137 -4 151 1 6 2 14 1 19 -1 5 -4 147 -6 315 -5 314 -11 563 -20 779 -3 67
-1 122 4 122 7 0 12 -22 26 -125 2 -11 13 -85 25 -165 12 -80 23 -154 25 -165
5 -46 18 -131 21 -150 6 -29 16 -97 19 -125 6 -49 15 -115 19 -135 5 -28 15
-92 21 -145 3 -25 8 -52 10 -60 2 -8 6 -35 9 -60 3 -25 8 -55 10 -67 3 -12 7
-48 11 -80 3 -32 8 -65 10 -73 2 -8 6 -35 9 -60 3 -25 8 -54 10 -65 5 -27 15
-101 21 -150 3 -22 7 -51 10 -65 3 -14 7 -43 10 -65 9 -71 14 -106 19 -133 3
-15 8 -47 11 -72 3 -25 7 -54 9 -65 2 -11 7 -42 10 -70 4 -27 12 -81 17 -120
35 -237 38 -253 43 -300 3 -22 7 -49 10 -60 2 -11 7 -45 11 -75 3 -30 8 -66
10 -80 2 -14 6 -43 10 -65 3 -23 7 -50 9 -60 2 -11 7 -45 11 -75 10 -72 13
-92 19 -97 6 -6 505 -7 512 -1 2 3 11 41 20 84 15 77 19 102 28 164 3 16 7 37
10 47 3 10 7 36 11 58 3 22 7 47 10 55 2 8 7 31 9 50 8 63 23 145 26 145 1 0
3 11 5 25 5 48 16 125 20 140 2 8 6 29 9 45 3 17 17 100 31 185 14 85 28 169
31 185 2 17 6 41 9 55 3 14 7 41 10 60 3 19 7 46 10 60 2 14 7 45 10 70 3 25
8 52 10 60 3 8 7 31 9 50 3 19 16 105 30 190 13 85 27 173 30 195 4 22 11 67
17 100 6 33 13 76 15 95 2 19 6 46 9 60 7 40 16 92 20 125 2 17 7 45 10 63 11
68 16 98 20 132 3 19 7 46 10 60 3 14 7 43 11 65 3 22 7 51 10 65 2 14 7 41
10 60 3 19 10 61 15 93 18 106 21 122 22 150 1 15 5 27 10 27 4 0 4 -123 1
-272 -7 -279 -13 -2725 -7 -2743 2 -7 97 -11 276 -10 l272 0 1 1773 c0 975 -3
1775 -7 1778 -5 3 -37 4 -71 4 -79 -1 -74 -1 -186 2 -50 2 -92 0 -92 -3 0 -4
-17 -3 -37 0 -21 4 -49 6 -63 4 -29 -2 -82 -3 -190 -3 -148 0 -173 1 -181 5
-11 7 -16 -4 -23 -50 -3 -22 -8 -51 -11 -65 -10 -48 -15 -75 -20 -105 -3 -16
-10 -52 -15 -80 -5 -27 -12 -66 -15 -85 -5 -31 -15 -84 -30 -160 -3 -14 -8
-41 -10 -60 -3 -19 -12 -69 -20 -110 -8 -41 -17 -88 -20 -105 -5 -32 -12 -75
-20 -115 -3 -14 -8 -38 -10 -55 -3 -16 -8 -41 -10 -55 -3 -14 -8 -38 -10 -55
-3 -16 -10 -52 -15 -80 -5 -27 -12 -68 -16 -90 -3 -22 -10 -59 -15 -83 -5 -23
-12 -59 -15 -80 -3 -20 -7 -48 -10 -62 -4 -23 -6 -37 -19 -100 -12 -64 -16
-87 -20 -115 -2 -16 -7 -46 -10 -65 -4 -19 -9 -45 -10 -57 -2 -12 -6 -36 -10
-53 -4 -17 -8 -41 -10 -53 -1 -12 -5 -35 -8 -52 -3 -16 -9 -50 -12 -75 -4 -25
-9 -54 -11 -65 -2 -11 -7 -38 -9 -60 -6 -46 -13 -80 -15 -80 -1 0 -3 -11 -4
-25 -3 -27 -14 -105 -22 -155 -6 -38 -14 -45 -15 -14 -1 13 -3 33 -4 44 -4 28
-16 124 -21 160 -2 17 -5 41 -8 55 -2 14 -7 48 -11 75 -3 28 -8 64 -11 80 -3
17 -7 46 -9 65 -2 19 -6 46 -9 59 -3 13 -8 49 -11 80 -3 31 -7 63 -10 71 -2 8
-6 35 -9 60 -3 25 -8 54 -10 65 -2 11 -7 45 -11 75 -4 30 -10 66 -12 80 -2 14
-5 36 -7 50 -1 14 -6 41 -9 60 -8 41 -18 104 -22 140 -1 14 -6 45 -10 70 -4
25 -9 52 -10 60 -1 8 -5 34 -9 58 -8 44 -13 77 -20 127 -2 17 -12 75 -21 130
-10 55 -19 109 -20 120 -2 11 -6 43 -10 70 -7 48 -9 61 -19 115 -3 14 -7 41
-10 60 -3 19 -12 73 -20 120 -8 47 -17 101 -20 120 -3 19 -8 44 -10 55 -2 12
-7 46 -11 76 l-7 56 -60 2 c-34 1 -65 4 -70 7 -4 3 -8 0 -8 -6 0 -6 -4 -9 -10
-5 -5 3 -29 5 -52 5 -24 0 -52 0 -63 0 -11 0 -49 0 -85 -1 -36 0 -69 0 -75 0
-115 5 -195 4 -195 -2 0 -5 -5 -5 -11 -1 -13 7 -168 8 -176 0 -3 -2 -15 -1
-28 4 -13 5 -26 6 -29 3z"/>
</g>
</svg>
