<?xml version="1.0" encoding="utf-8"?>
<!-- Generator: Adobe Illustrator 24.3.0, SVG Export Plug-In . SVG Version: 6.00 Build 0)  -->
<svg version="1.1" id="Capa_1" xmlns="http://www.w3.org/2000/svg" xmlns:xlink="http://www.w3.org/1999/xlink" x="0px" y="0px"
	 viewBox="0 0 877 163" style="enable-background:new 0 0 877 163;" xml:space="preserve">
<style type="text/css">
	.st0{fill:#D40005;}
</style>
<g>
	<path class="st0" d="M42.4,92.9v37.9H28V41.9h24.7c14.6,0,22.9,8.4,22.9,24.3c0,12.9-6.2,18.4-10.4,20.2c6.2,3.2,9.2,9.1,9.2,22.2
		v3.5c0,10.1,0.4,13.9,1.1,18.6h-14c-1.2-4.1-1.4-11.1-1.4-18.8v-3.2c0-11.9-2.5-15.9-11.6-15.9H42.4z M42.4,80h6.8
		c8.7,0,12.1-4.1,12.1-13.1c0-7.7-3.3-12.1-10.7-12.1h-8.2V80z"/>
	<path class="st0" d="M126.7,91.3h-25.9v25.8h29l-1.8,13.7H86.6V41.9h41.3v13.9h-27.1v21.6h25.9V91.3z"/>
	<path class="st0" d="M153.8,108.4l-4,22.4h-14.4L154,41.9h18.7l18.9,88.9h-15.1l-4-22.4H153.8z M169.8,94.6
		c-3-17-5.4-29.4-6.7-37.9h-0.3c-1,8.2-3.5,21.5-6.5,37.9H169.8z"/>
	<path class="st0" d="M245.6,104.9c-0.4,4.5-1.9,27.4-24.3,27.4c-22.9,0-25.5-22.2-25.5-46.1c0-28.8,7.6-45.7,26.4-45.7
		c21.4,0,23,20.2,23.3,27.3h-14.3c-0.2-3-0.4-13.8-9.3-13.8c-9.1,0-11.3,12.2-11.3,32.6c0,16.8,1.5,32.5,10.9,32.5
		c8.6,0,9.3-10.7,9.6-14.1H245.6z"/>
	<path class="st0" d="M267.2,55.8H250V41.9h48.9v13.9h-17.2v75h-14.4V55.8z"/>
	<path class="st0" d="M378.3,97.7c0-15.2,0.2-32.5,0.5-42.6h-0.3c-2.8,16.9-7.2,46.9-12.5,75.6h-13c-3.9-26.8-8.5-58.7-11.1-75.9
		h-0.4c0.5,10.4,0.8,29,0.8,44.4v31.5H329V41.9h21.6c4.2,24.6,7.9,49.4,9.5,62.3h0.1c1.6-12.1,6.7-38.8,10.9-62.3h21.1v88.9h-13.8
		V97.7z"/>
	<path class="st0" d="M418.1,108.4l-4,22.4h-14.4l18.7-88.9H437l18.9,88.9h-15.1l-4-22.4H418.1z M434.1,94.6
		c-3-17-5.4-29.4-6.7-37.9h-0.3c-1,8.2-3.5,21.5-6.5,37.9H434.1z"/>
	<path class="st0" d="M467.8,55.8h-17.2V41.9h48.9v13.9h-17.2v75h-14.4V55.8z"/>
	<path class="st0" d="M521.5,55.8h-17.2V41.9h48.9v13.9H536v75h-14.4V55.8z"/>
	<path class="st0" d="M574.7,41.9v61.2c0,7.3,1.6,15.9,10.5,15.9c8.6,0,10.4-7.3,10.4-15.8V41.9H610v61.5c0,16-5.6,28.9-25.1,28.9
		c-19.2,0-24.7-12.2-24.7-28.9V41.9H574.7z"/>
	<path d="M655.4,105.9c0.7,7.4,3.4,13.9,10.7,13.9c7.1,0,9.7-4.9,9.7-11.5c0-7.3-3.3-11.5-13.4-16.9c-13.8-7.2-19.2-13.6-19.2-26.8
		c0-14.3,8.3-24,22.9-24c18.1,0,22.6,13.5,22.8,25.1h-14.1c-0.5-5.1-1.7-12.6-8.9-12.6c-5.7,0-8.3,4.1-8.3,10.1
		c0,6.4,2.6,9.4,12,14.2c14.5,7.4,20.9,14.5,20.9,29.4c0,14-7.8,25.5-24.9,25.5c-18.5,0-24.2-13.1-24.7-26.4H655.4z"/>
	<path d="M740.7,91.3h-25.9v25.8h29l-1.8,13.7h-41.5V41.9h41.3v13.9h-27.1v21.6h25.9V91.3z"/>
	<path d="M752.6,130.8V41.9H769c16.7,49.1,19.9,58.5,20.8,62.8h0.1c-0.7-10.7-0.7-23.8-0.7-38.3V41.9h12.9v88.9h-15.7
		c-17.2-52.4-20.3-61.8-21.3-65.9H765c0.6,11,0.6,24,0.6,40v25.9H752.6z"/>
	<path d="M816.1,41.9h21c20.7,0,28.8,14.6,28.8,42.6c0,30-7.7,46.3-29.9,46.3h-19.9V41.9z M830.6,117.8h5.2
		c11.3,0,15.2-9.4,15.2-33.2c0-20.4-3.4-29.4-15-29.4h-5.3V117.8z"/>
</g>
</svg>
